<?xml version="1.0" encoding="UTF-8" standalone="no"?>
<!DOCTYPE svg PUBLIC "-//W3C//DTD SVG 1.1//EN" "http://www.w3.org/Graphics/SVG/1.1/DTD/svg11.dtd">
<svg xmlns="http://www.w3.org/2000/svg" version="1.1" viewBox="0.00 0.00 612.00 400.00" width="612.00" height="400.00">
<path fill="#000000" d="
  M 276.79 91.68
  L 276.78 103.28
  C 276.78 103.69 277.12 104.03 277.53 104.03
  L 313.85 104.05
  C 314.42 104.05 314.89 104.52 314.89 105.09
  L 314.94 116.22
  C 314.94 116.73 314.53 117.14 314.03 117.14
  L 264.93 117.20
  C 264.18 117.21 263.81 117.58 263.81 118.32
  L 263.79 142.18
  C 263.79 142.67 264.19 143.06 264.68 143.06
  L 288.27 143.02
  C 288.77 143.02 289.18 143.43 289.18 143.93
  L 289.19 168.74
  C 289.19 169.19 288.96 169.42 288.51 169.42
  L 277.47 169.43
  C 277.07 169.43 276.75 169.11 276.75 168.72
  L 276.75 157.51
  C 276.75 157.10 276.41 156.76 276.00 156.76
  L 264.79 156.71
  C 263.95 156.70 263.53 157.12 263.53 157.96
  L 263.48 181.30
  C 263.48 182.14 262.79 182.83 261.95 182.83
  L 251.52 182.80
  C 251.14 182.80 250.83 183.10 250.83 183.48
  L 250.92 194.76
  C 250.92 195.16 250.59 195.49 250.19 195.49
  L 238.57 195.50
  C 238.33 195.50 238.14 195.69 238.14 195.93
  L 238.14 228.53
  C 238.14 229.31 238.77 229.94 239.55 229.94
  L 415.56 229.96
  C 416.45 229.96 416.90 230.41 416.91 231.30
  L 416.92 233.68
  C 416.92 234.29 416.43 234.78 415.82 234.78
  L 238.73 234.78
  C 238.28 234.78 237.92 235.14 237.92 235.59
  L 237.95 246.42
  C 237.95 246.88 238.33 247.26 238.79 247.26
  L 249.54 247.25
  C 249.98 247.25 250.33 247.60 250.34 248.04
  L 250.46 259.85
  C 250.46 260.38 250.19 260.65 249.65 260.65
  L 225.09 260.64
  C 224.56 260.64 224.29 260.37 224.29 259.84
  L 224.28 235.75
  C 224.28 235.31 223.93 234.96 223.50 234.96
  L 186.45 234.96
  C 186.00 234.96 185.63 235.33 185.63 235.79
  L 185.74 246.53
  C 185.75 246.90 186.04 247.19 186.41 247.19
  L 197.70 247.15
  C 198.07 247.15 198.25 247.33 198.25 247.70
  L 198.24 259.53
  C 198.24 259.88 198.07 260.05 197.72 260.05
  L 172.96 260.01
  C 172.66 260.01 172.41 259.76 172.41 259.46
  L 172.41 235.73
  C 172.41 235.10 172.10 234.79 171.48 234.79
  L 107.51 234.82
  C 106.88 234.82 106.61 234.51 106.70 233.88
  C 106.84 232.95 106.81 232.04 106.60 231.15
  C 106.50 230.69 106.84 230.26 107.30 230.26
  L 171.42 230.27
  C 171.80 230.27 172.11 229.96 172.11 229.58
  L 172.15 209.48
  C 172.15 209.04 171.93 208.82 171.49 208.82
  L 160.27 208.83
  C 159.40 208.83 158.96 208.39 158.96 207.52
  L 159.00 195.95
  C 159.00 195.74 158.83 195.57 158.63 195.58
  L 147.31 195.69
  C 146.56 195.70 146.18 195.32 146.19 194.56
  L 146.25 184.03
  C 146.26 183.38 145.93 183.06 145.28 183.05
  L 133.62 183.00
  C 133.00 183.00 132.50 182.49 132.50 181.87
  L 132.56 170.41
  C 132.56 170.05 132.27 169.75 131.91 169.75
  L 120.07 169.72
  C 119.85 169.72 119.67 169.54 119.67 169.32
  L 119.66 104.84
  C 119.66 104.65 119.82 104.50 120.01 104.50
  L 131.96 104.51
  C 132.35 104.51 132.67 104.82 132.67 105.21
  L 132.66 129.41
  C 132.66 130.07 132.99 130.40 133.66 130.40
  L 145.05 130.32
  C 145.31 130.32 145.53 130.54 145.52 130.80
  L 145.43 142.50
  C 145.43 142.81 145.69 143.07 146.00 143.07
  L 157.54 143.01
  C 158.25 143.01 158.82 143.58 158.82 144.29
  L 158.80 155.02
  C 158.80 155.69 159.35 156.24 160.02 156.24
  L 183.75 156.23
  C 184.49 156.23 184.86 155.86 184.86 155.13
  L 184.86 143.70
  C 184.86 143.23 185.09 143.00 185.56 143.00
  L 197.95 143.10
  C 198.12 143.10 198.25 142.97 198.25 142.80
  L 198.23 130.81
  C 198.23 130.57 198.42 130.38 198.66 130.38
  L 210.02 130.42
  C 210.65 130.42 210.96 130.11 210.96 129.48
  L 210.96 118.07
  C 210.96 117.53 211.39 117.10 211.93 117.10
  L 223.44 117.16
  C 223.77 117.17 224.04 116.90 224.04 116.56
  L 224.04 52.51
  C 224.04 52.11 224.37 51.78 224.77 51.78
  L 236.19 51.86
  C 236.77 51.86 237.24 51.39 237.24 50.81
  L 237.24 39.65
  C 237.24 39.31 237.51 39.04 237.85 39.04
  L 315.15 39.04
  C 315.63 39.04 316.02 39.43 316.01 39.91
  L 315.97 51.25
  C 315.96 51.60 316.14 51.78 316.50 51.78
  L 327.89 51.79
  C 328.29 51.79 328.49 51.99 328.49 52.39
  L 328.51 90.57
  C 328.51 90.96 328.32 91.15 327.93 91.15
  L 277.32 91.15
  C 276.97 91.15 276.79 91.33 276.79 91.68
  Z
  M 263.4805 52.7657
  C 263.48 52.33 263.12 51.98 262.6864 51.9799
  L 251.1466 52.0403
  C 250.71 52.04 250.36 52.40 250.3607 52.8344
  L 250.4195 64.0543
  C 250.42 64.49 250.78 64.84 251.2136 64.8401
  L 262.7534 64.7797
  C 263.19 64.78 263.54 64.42 263.5393 63.9856
  L 263.4805 52.7657
  Z
  M 210.89 223.02
  C 210.89 222.35 210.34 221.80 209.67 221.80
  L 199.63 221.80
  C 198.96 221.80 198.41 222.35 198.41 223.02
  L 198.41 228.62
  C 198.41 229.29 198.96 229.84 199.63 229.84
  L 209.67 229.84
  C 210.34 229.84 210.89 229.29 210.89 228.62
  L 210.89 223.02
  Z"
/>
<path fill="#000000" d="
  M 442.31 76.41
  L 447.00 76.44
  C 447.87 76.45 448.30 76.88 448.30 77.75
  L 448.32 166.95
  C 448.32 167.49 448.76 167.92 449.30 167.90
  C 452.66 167.83 456.13 167.79 459.72 167.80
  C 459.76 167.80 459.80 167.81 459.83 167.84
  C 460.23 168.22 460.90 167.94 460.90 167.38
  C 460.90 145.65 460.90 124.28 460.91 103.28
  C 460.91 102.77 461.17 102.51 461.68 102.51
  L 466.75 102.53
  C 467.18 102.53 467.53 102.19 467.55 101.75
  L 467.69 97.52
  C 467.72 96.69 468.15 96.28 468.98 96.27
  L 473.30 96.23
  C 473.89 96.22 474.37 96.70 474.38 97.30
  L 474.41 101.49
  C 474.41 101.95 474.78 102.32 475.24 102.33
  L 480.40 102.40
  C 480.81 102.41 481.14 102.74 481.14 103.15
  L 481.14 174.50
  C 481.14 174.85 480.86 175.14 480.50 175.15
  L 475.24 175.23
  C 474.81 175.24 474.47 175.59 474.48 176.01
  L 474.50 180.64
  C 474.51 181.27 473.98 181.79 473.35 181.77
  L 469.16 181.67
  C 468.57 181.65 468.08 182.13 468.08 182.72
  L 468.05 187.29
  C 468.04 187.75 467.67 188.12 467.21 188.12
  L 449.44 188.13
  C 448.93 188.13 448.51 188.55 448.51 189.06
  L 448.50 259.77
  C 448.50 260.20 448.16 260.55 447.73 260.55
  L 422.46 260.54
  C 422.01 260.54 421.64 260.17 421.64 259.71
  L 421.66 169.25
  C 421.66 168.89 421.37 168.60 421.00 168.59
  L 403.05 168.54
  C 402.51 168.54 402.07 168.09 402.10 167.55
  L 402.33 162.49
  C 402.35 162.15 402.08 161.86 401.74 161.87
  L 396.75 161.94
  C 396.17 161.95 395.70 161.48 395.69 160.89
  L 395.67 156.36
  C 395.66 156.02 395.50 155.82 395.17 155.75
  C 393.36 155.38 391.64 155.30 390.03 155.53
  C 389.53 155.60 389.08 155.22 389.08 154.71
  L 389.08 103.92
  C 389.08 103.10 389.81 102.47 390.62 102.60
  C 391.91 102.81 393.18 102.66 394.42 102.15
  C 394.76 102.01 395.01 101.71 395.07 101.35
  L 395.80 97.26
  C 395.85 96.95 396.10 96.72 396.41 96.68
  C 400.54 96.14 404.53 96.14 408.40 96.67
  C 408.77 96.72 409.03 96.91 409.18 97.26
  C 409.73 98.55 409.97 99.93 409.88 101.40
  C 409.85 101.81 410.05 102.03 410.46 102.06
  L 414.20 102.27
  C 414.66 102.30 414.90 102.54 414.93 103.01
  C 415.50 113.51 415.74 123.71 415.64 133.60
  C 415.63 134.69 416.18 135.24 417.27 135.25
  L 419.90 135.27
  C 421.02 135.28 421.58 134.72 421.58 133.60
  L 421.68 77.37
  C 421.69 76.90 421.92 76.66 422.38 76.63
  L 427.52 76.30
  C 427.96 76.27 428.30 75.91 428.31 75.48
  L 428.35 70.46
  C 428.35 70.07 428.66 69.76 429.04 69.76
  L 440.89 69.76
  C 441.38 69.76 441.77 70.15 441.77 70.64
  L 441.72 75.81
  C 441.72 76.14 441.98 76.40 442.31 76.41
  Z"
/>
<rect fill="#000000" x="456.40" y="230.29" width="39.10" height="4.42" rx="0.60"/>
<rect fill="#000000" x="-9.82" y="-2.14" transform="translate(148.89,243.14) rotate(0.1)" width="19.64" height="4.28" rx="1.32"/>
<rect fill="#000000" x="385.69" y="241.05" width="19.18" height="4.08" rx="0.56"/>
<rect fill="#000000" x="-9.78" y="-1.96" transform="translate(116.64,253.68) rotate(0.2)" width="19.56" height="3.92" rx="0.71"/>
<path fill="#000000" d="
  M 321.35 255.98
  L 315.72 256.02
  C 315.35 256.02 315.05 255.73 315.04 255.36
  L 314.93 252.33
  C 314.91 251.94 315.22 251.62 315.61 251.63
  L 321.71 251.68
  C 322.12 251.69 322.43 252.04 322.38 252.44
  L 322.02 255.39
  C 321.98 255.73 321.69 255.98 321.35 255.98
  Z"
/>
<path fill="#000000" d="
  M 371.88 255.84
  L 353.94 256.01
  C 353.63 256.02 353.37 255.78 353.34 255.47
  L 353.03 252.30
  C 353.00 251.95 353.28 251.64 353.63 251.64
  L 372.05 251.69
  C 372.40 251.69 372.67 251.98 372.65 252.32
  L 372.47 255.27
  C 372.45 255.59 372.20 255.83 371.88 255.84
  Z"
/>
<rect fill="#000000" x="-4.72" y="-2.13" transform="translate(500.44,257.10) rotate(0.3)" width="9.44" height="4.26" rx="0.27"/>
<path fill="#000000" d="
  M 37.74 334.25
  L 37.83 360.26
  C 37.83 360.68 37.49 361.02 37.07 361.02
  L 27.23 360.97
  C 26.81 360.97 26.48 360.64 26.48 360.22
  L 26.50 334.24
  C 26.50 333.82 26.16 333.48 25.74 333.49
  L 21.49 333.52
  C 21.07 333.53 20.73 333.19 20.73 332.77
  L 20.77 327.25
  C 20.77 326.85 20.45 326.52 20.05 326.50
  L 15.74 326.31
  C 15.34 326.29 15.02 325.96 15.02 325.56
  L 14.96 299.51
  C 14.96 299.10 15.30 298.76 15.71 298.76
  L 25.76 298.74
  C 26.17 298.74 26.51 299.08 26.51 299.49
  L 26.50 325.58
  C 26.50 326.00 26.84 326.34 27.26 326.33
  L 37.03 326.22
  C 37.44 326.21 37.77 325.88 37.77 325.47
  L 37.74 299.49
  C 37.74 299.08 38.08 298.74 38.49 298.74
  L 48.99 298.78
  C 49.40 298.78 49.74 299.12 49.73 299.53
  L 49.52 325.75
  C 49.51 326.17 49.16 326.51 48.74 326.50
  L 44.50 326.37
  C 44.08 326.36 43.73 326.69 43.73 327.11
  L 43.61 332.77
  C 43.61 333.18 43.27 333.51 42.86 333.51
  L 38.50 333.49
  C 38.08 333.49 37.74 333.83 37.74 334.25
  Z"
/>
<path fill="#000000" d="
  M 66.90 304.89
  L 66.77 299.37
  C 66.77 299.03 67.04 298.75 67.38 298.75
  L 89.44 298.76
  C 89.79 298.76 90.07 299.06 90.05 299.41
  L 89.72 304.84
  C 89.70 305.19 89.97 305.48 90.32 305.49
  L 95.13 305.53
  C 95.46 305.53 95.73 305.80 95.73 306.13
  L 95.77 353.22
  C 95.77 353.55 95.50 353.82 95.17 353.83
  L 90.43 353.89
  C 90.09 353.90 89.82 354.17 89.82 354.51
  L 89.86 360.29
  C 89.86 360.63 89.59 360.90 89.25 360.90
  L 67.48 361.05
  C 67.15 361.05 66.88 360.78 66.87 360.45
  L 66.77 354.62
  C 66.76 354.30 66.51 354.04 66.20 354.02
  L 61.76 353.75
  C 61.44 353.73 61.19 353.47 61.19 353.14
  L 61.20 306.10
  C 61.20 305.76 61.47 305.49 61.81 305.49
  L 66.28 305.52
  C 66.63 305.52 66.90 305.24 66.90 304.89
  Z
  M 84.25 305.82
  C 84.25 305.64 84.11 305.50 83.93 305.50
  L 72.67 305.50
  C 72.49 305.50 72.35 305.64 72.35 305.82
  L 72.35 353.78
  C 72.35 353.96 72.49 354.10 72.67 354.10
  L 83.93 354.10
  C 84.11 354.10 84.25 353.96 84.25 353.78
  L 84.25 305.82
  Z"
/>
<path fill="#000000" d="
  M 112.46 353.70
  L 107.66 354.04
  C 107.47 354.05 107.30 353.89 107.30 353.70
  L 107.26 299.09
  C 107.26 298.90 107.41 298.75 107.60 298.75
  L 118.22 298.77
  C 118.41 298.77 118.56 298.92 118.56 299.11
  L 118.52 353.42
  C 118.52 353.61 118.67 353.76 118.86 353.76
  L 129.70 353.79
  C 129.89 353.79 130.04 353.64 130.04 353.45
  L 130.03 299.13
  C 130.03 298.94 130.18 298.79 130.37 298.79
  L 141.61 298.74
  C 141.80 298.74 141.95 298.89 141.95 299.08
  L 141.96 353.47
  C 141.96 353.65 141.81 353.80 141.63 353.81
  L 136.42 353.88
  C 136.24 353.89 136.09 354.04 136.09 354.22
  L 136.03 360.61
  C 136.03 360.80 135.88 360.95 135.69 360.95
  L 113.31 361.09
  C 113.13 361.09 112.98 360.94 112.97 360.76
  L 112.83 354.04
  C 112.82 353.84 112.66 353.69 112.46 353.70
  Z"
/>
<path fill="#000000" d="
  M 204.24 361.01
  L 194.22 360.96
  C 193.89 360.96 193.72 360.80 193.72 360.47
  L 193.75 334.15
  C 193.75 333.75 193.55 333.55 193.15 333.55
  L 182.94 333.52
  C 182.51 333.52 182.16 333.87 182.16 334.31
  L 182.20 360.01
  C 182.20 360.53 181.77 360.96 181.24 360.96
  L 171.45 360.94
  C 170.90 360.94 170.45 360.50 170.45 359.95
  L 170.45 306.01
  C 170.45 305.72 170.69 305.48 170.99 305.48
  L 175.55 305.52
  C 176.00 305.53 176.37 305.15 176.34 304.70
  L 176.05 299.52
  C 176.02 299.04 176.25 298.80 176.73 298.80
  L 198.72 298.75
  C 199.21 298.74 199.44 298.98 199.43 299.47
  L 199.27 304.49
  C 199.25 305.16 199.58 305.50 200.25 305.50
  L 204.43 305.52
  C 204.80 305.52 204.99 305.71 204.99 306.08
  C 204.99 324.23 204.99 342.22 205.00 360.06
  C 205.00 360.41 204.85 360.75 204.59 360.99
  C 204.52 361.06 204.43 361.08 204.34 361.04
  C 204.31 361.02 204.28 361.01 204.24 361.01
  Z
  M 193.6835 306.2902
  C 193.68 305.88 193.35 305.54 192.9322 305.5415
  L 183.1922 305.5585
  C 182.78 305.56 182.44 305.90 182.4435 306.3098
  L 182.4765 325.1898
  C 182.48 325.60 182.81 325.94 183.2278 325.9385
  L 192.9678 325.9215
  C 193.38 325.92 193.72 325.58 193.7165 325.1702
  L 193.6835 306.2902
  Z"
/>
<path fill="#000000" d="
  M 239.00 333.51
  L 229.11 333.49
  C 228.68 333.49 228.33 333.84 228.33 334.27
  L 228.34 360.19
  C 228.34 360.62 227.99 360.97 227.56 360.97
  L 217.32 360.95
  C 216.89 360.95 216.54 360.60 216.54 360.17
  L 216.51 299.55
  C 216.51 299.12 216.86 298.77 217.29 298.77
  L 244.72 298.75
  C 245.16 298.75 245.52 299.12 245.50 299.56
  L 245.32 304.70
  C 245.30 305.14 245.66 305.51 246.11 305.50
  L 250.27 305.47
  C 250.71 305.46 251.06 305.81 251.06 306.25
  L 251.09 325.74
  C 251.09 326.19 250.72 326.54 250.27 326.52
  L 246.16 326.34
  C 245.72 326.32 245.34 326.68 245.35 327.13
  L 245.41 332.74
  C 245.42 333.18 245.80 333.53 246.24 333.51
  L 250.28 333.24
  C 250.73 333.21 251.11 333.56 251.11 334.01
  L 251.13 360.20
  C 251.13 360.63 250.78 360.98 250.35 360.99
  L 240.52 361.05
  C 240.08 361.06 239.73 360.71 239.73 360.27
  L 239.78 334.29
  C 239.78 333.86 239.43 333.51 239.00 333.51
  Z
  M 239.96 306.40
  C 239.96 305.92 239.57 305.53 239.09 305.53
  L 228.87 305.53
  C 228.39 305.53 228.00 305.92 228.00 306.40
  L 228.00 325.62
  C 228.00 326.10 228.39 326.49 228.87 326.49
  L 239.09 326.49
  C 239.57 326.49 239.96 326.10 239.96 325.62
  L 239.96 306.40
  Z"
/>
<path fill="#000000" d="
  M 285.76 326.78
  L 285.79 332.99
  C 285.79 333.32 285.53 333.58 285.20 333.57
  L 275.03 333.48
  C 274.70 333.47 274.44 333.73 274.44 334.06
  L 274.51 353.19
  C 274.51 353.51 274.77 353.77 275.09 353.77
  L 291.00 353.76
  C 291.32 353.76 291.59 354.03 291.58 354.35
  L 291.48 360.41
  C 291.47 360.73 291.22 360.98 290.90 360.98
  L 263.30 360.91
  C 262.98 360.91 262.72 360.65 262.72 360.33
  L 262.71 299.37
  C 262.71 299.05 262.97 298.79 263.29 298.79
  L 290.94 298.76
  C 291.27 298.76 291.53 299.02 291.52 299.35
  L 291.47 304.98
  C 291.46 305.29 291.20 305.55 290.89 305.55
  L 275.00 305.54
  C 274.68 305.54 274.42 305.80 274.42 306.12
  L 274.57 325.78
  C 274.57 326.10 274.83 326.36 275.15 326.35
  L 285.17 326.20
  C 285.50 326.19 285.76 326.45 285.76 326.78
  Z"
/>
<path fill="#000000" d="
  M 326.25 304.74
  L 326.19 299.29
  C 326.18 298.94 326.36 298.76 326.71 298.76
  L 348.24 298.77
  C 348.91 298.77 349.44 299.32 349.41 299.99
  L 349.24 304.71
  C 349.22 305.12 349.55 305.46 349.96 305.47
  L 354.48 305.52
  C 354.95 305.53 355.18 305.76 355.18 306.23
  L 355.25 352.75
  C 355.25 353.44 354.69 353.99 354.00 353.98
  L 350.02 353.90
  C 349.56 353.89 349.18 354.27 349.19 354.73
  L 349.31 359.93
  C 349.32 360.49 348.88 360.94 348.32 360.95
  L 327.00 360.99
  C 326.48 360.99 326.22 360.73 326.22 360.21
  L 326.22 354.51
  C 326.22 354.12 326.02 353.90 325.63 353.85
  C 323.98 353.66 322.50 353.72 321.21 354.05
  C 320.86 354.14 320.51 353.87 320.51 353.50
  L 320.51 306.00
  C 320.51 305.73 320.73 305.51 321.00 305.51
  L 325.50 305.51
  C 326.01 305.50 326.26 305.25 326.25 304.74
  Z
  M 343.62 306.21
  C 343.62 305.84 343.32 305.54 342.95 305.54
  L 332.33 305.54
  C 331.96 305.54 331.66 305.84 331.66 306.21
  L 331.66 353.45
  C 331.66 353.82 331.96 354.12 332.33 354.12
  L 342.95 354.12
  C 343.32 354.12 343.62 353.82 343.62 353.45
  L 343.62 306.21
  Z"
/>
<path fill="#000000" d="
  M 377.92 305.95
  L 377.89 325.35
  C 377.89 325.81 378.27 326.19 378.73 326.19
  L 387.58 326.15
  C 389.04 326.14 389.75 326.87 389.72 328.33
  L 389.64 332.10
  C 389.61 333.06 389.12 333.54 388.15 333.54
  L 378.45 333.53
  C 378.10 333.53 377.93 333.70 377.93 334.05
  L 377.94 360.44
  C 377.94 360.80 377.64 361.10 377.28 361.09
  L 367.26 360.93
  C 366.82 360.92 366.60 360.70 366.60 360.26
  L 366.61 299.13
  C 366.61 298.94 366.76 298.78 366.95 298.78
  L 394.99 298.76
  C 395.26 298.76 395.47 298.97 395.48 299.24
  L 395.55 305.11
  C 395.55 305.38 395.41 305.52 395.14 305.52
  L 378.30 305.56
  C 378.09 305.56 377.92 305.73 377.92 305.95
  Z"
/>
<path fill="#000000" d="
  M 418.26 334.12
  L 418.26 360.50
  C 418.26 360.83 417.99 361.10 417.66 361.09
  L 407.59 361.00
  C 407.27 360.99 407.01 360.73 407.01 360.41
  L 406.98 299.33
  C 406.98 299.00 407.24 298.74 407.57 298.74
  L 435.36 298.77
  C 435.69 298.77 435.96 299.04 435.95 299.37
  L 435.90 304.93
  C 435.89 305.25 435.63 305.51 435.31 305.51
  L 418.87 305.55
  C 418.54 305.55 418.28 305.81 418.28 306.14
  L 418.27 325.60
  C 418.27 325.92 418.53 326.18 418.85 326.19
  L 429.41 326.32
  C 429.73 326.33 429.99 326.59 429.99 326.91
  L 429.99 332.90
  C 429.99 333.23 429.73 333.49 429.40 333.49
  L 418.85 333.53
  C 418.52 333.53 418.26 333.79 418.26 334.12
  Z"
/>
<path fill="#000000" d="
  M 459.23 353.78
  L 475.56 353.75
  C 475.87 353.75 476.12 354.00 476.11 354.31
  L 476.05 360.39
  C 476.04 360.69 475.80 360.93 475.50 360.93
  L 447.92 360.98
  C 447.62 360.98 447.37 360.73 447.37 360.43
  L 447.38 299.31
  C 447.38 299.01 447.63 298.76 447.93 298.76
  L 458.15 298.75
  C 458.45 298.75 458.70 299.00 458.70 299.30
  L 458.68 353.23
  C 458.68 353.53 458.93 353.78 459.23 353.78
  Z"
/>
<path fill="#000000" d="
  M 481.98 304.84
  L 481.87 299.36
  C 481.86 299.07 482.10 298.83 482.39 298.83
  L 504.31 298.73
  C 504.60 298.73 504.84 298.97 504.83 299.26
  L 504.72 305.03
  C 504.71 305.31 504.48 305.54 504.20 305.54
  L 499.61 305.52
  C 499.32 305.52 499.09 305.75 499.09 306.04
  L 499.08 353.26
  C 499.08 353.55 499.31 353.78 499.60 353.78
  L 504.20 353.77
  C 504.49 353.77 504.72 354.00 504.72 354.29
  L 504.74 360.50
  C 504.74 360.78 504.50 361.02 504.22 361.02
  L 482.30 360.90
  C 482.01 360.90 481.78 360.67 481.78 360.38
  L 481.77 354.33
  C 481.77 354.04 482.00 353.81 482.29 353.81
  L 487.14 353.77
  C 487.43 353.77 487.66 353.54 487.66 353.25
  L 487.60 306.19
  C 487.60 305.92 487.39 305.70 487.12 305.68
  L 482.46 305.35
  C 482.20 305.33 481.99 305.11 481.98 304.84
  Z"
/>
<path fill="#000000" d="
  M 550.74 332.75
  L 550.76 299.49
  C 550.76 299.07 551.10 298.73 551.52 298.73
  L 555.98 298.73
  C 556.40 298.73 556.74 299.07 556.74 299.49
  L 556.73 360.24
  C 556.73 360.66 556.39 361.00 555.97 360.99
  L 551.48 360.97
  C 551.06 360.96 550.72 360.62 550.72 360.20
  L 550.76 354.48
  C 550.76 354.05 550.39 353.70 549.96 353.72
  L 545.92 353.93
  C 545.49 353.95 545.12 353.60 545.12 353.17
  L 545.16 347.83
  C 545.16 347.40 544.82 347.06 544.39 347.06
  L 540.21 347.08
  C 539.79 347.08 539.45 346.73 539.45 346.31
  L 539.53 341.04
  C 539.53 340.61 539.19 340.26 538.76 340.27
  L 534.49 340.33
  C 534.06 340.34 533.71 339.98 533.71 339.55
  L 533.82 334.29
  C 533.82 333.87 533.48 333.52 533.06 333.51
  L 528.73 333.49
  C 528.31 333.48 527.98 333.15 527.97 332.73
  L 527.92 327.26
  C 527.91 326.85 527.58 326.52 527.17 326.51
  L 523.05 326.45
  C 522.63 326.44 522.28 326.79 522.28 327.21
  L 522.36 360.20
  C 522.36 360.62 522.01 360.96 521.59 360.96
  L 516.98 360.88
  C 516.56 360.88 516.23 360.54 516.23 360.12
  L 516.26 299.51
  C 516.26 299.10 516.60 298.76 517.01 298.76
  L 521.58 298.73
  C 522.01 298.72 522.35 299.07 522.35 299.50
  L 522.26 304.70
  C 522.26 305.12 522.59 305.46 523.01 305.47
  L 527.38 305.53
  C 527.80 305.54 528.13 305.87 528.13 306.29
  L 528.14 311.54
  C 528.14 311.95 528.47 312.29 528.88 312.30
  L 533.06 312.43
  C 533.47 312.44 533.79 312.77 533.80 313.18
  L 533.87 318.82
  C 533.88 319.26 534.25 319.61 534.69 319.57
  L 538.61 319.24
  C 539.05 319.20 539.43 319.54 539.44 319.98
  L 539.54 325.60
  C 539.55 326.03 539.91 326.36 540.34 326.34
  L 544.30 326.15
  C 544.72 326.13 545.09 326.47 545.09 326.89
  L 545.19 332.67
  C 545.19 333.08 545.52 333.41 545.93 333.42
  L 549.96 333.51
  C 550.39 333.52 550.74 333.18 550.74 332.75
  Z"
/>
<path fill="#000000" d="
  M 579.86 306.01
  L 579.89 325.82
  C 579.89 326.08 580.11 326.30 580.37 326.30
  L 590.71 326.22
  C 590.98 326.22 591.19 326.43 591.19 326.70
  L 591.25 333.05
  C 591.25 333.32 591.03 333.54 590.76 333.54
  L 580.35 333.50
  C 580.09 333.50 579.87 333.72 579.87 333.98
  L 579.87 353.29
  C 579.87 353.56 580.08 353.77 580.35 353.77
  L 596.55 353.79
  C 596.82 353.79 597.03 354.00 597.03 354.27
  L 597.03 360.53
  C 597.03 360.79 596.81 361.01 596.55 361.01
  L 568.79 360.93
  C 568.52 360.93 568.31 360.72 568.31 360.45
  L 568.27 299.25
  C 568.27 298.98 568.48 298.77 568.75 298.77
  L 596.66 298.76
  C 596.92 298.76 597.14 298.98 597.14 299.24
  L 597.08 305.05
  C 597.08 305.32 596.87 305.53 596.60 305.53
  L 580.34 305.53
  C 580.08 305.53 579.86 305.75 579.86 306.01
  Z"
/>
</svg>
