<?xml version="1.0" standalone="no"?>
<!DOCTYPE svg PUBLIC "-//W3C//DTD SVG 20010904//EN"
 "http://www.w3.org/TR/2001/REC-SVG-20010904/DTD/svg10.dtd">
<svg version="1.0" xmlns="http://www.w3.org/2000/svg"
 width="700.000000pt" height="700.000000pt" viewBox="0 0 700.000000 700.000000"
 preserveAspectRatio="xMidYMid meet">
<metadata>
Created by potrace 1.14, written by Peter Selinger 2001-2017
</metadata>
<g transform="translate(0.000000,700.000000) scale(0.100000,-0.100000)"
fill="#000000" stroke="none">
<path d="M1890 6689 c-108 -10 -258 -43 -374 -80 -175 -57 -446 -202 -496
-266 -39 -50 -18 -139 40 -163 44 -18 78 -8 174 55 193 126 418 207 654 235
l92 11 103 -50 c168 -83 395 -251 483 -357 l34 -43 -67 -44 c-166 -107 -357
-291 -473 -453 -35 -49 -67 -93 -71 -98 -17 -19 -49 27 -60 87 -19 95 -75 138
-148 113 -43 -14 -69 -49 -80 -108 -15 -82 -56 -125 -130 -135 -29 -4 -49 0
-78 17 -48 26 -71 63 -80 125 -7 56 -34 92 -76 103 -65 18 -132 -24 -142 -87
-12 -70 -15 -80 -41 -110 -51 -61 -146 -65 -205 -10 -68 63 -103 73 -157 45
-30 -16 -96 -124 -142 -232 -60 -143 -110 -364 -110 -486 0 -27 -4 -48 -10
-48 -15 0 -12 298 5 423 35 264 133 507 290 719 71 97 80 116 70 164 -8 43
-53 74 -107 74 -52 0 -93 -39 -183 -174 -169 -254 -267 -536 -295 -846 -5 -63
-10 -200 -10 -303 l0 -189 -40 -45 c-104 -118 -145 -301 -105 -458 46 -176
190 -321 364 -366 l49 -12 21 -89 c42 -180 139 -386 258 -548 67 -90 225 -248
311 -310 99 -72 211 -137 295 -172 l77 -32 -2 -174 -3 -174 -105 -32 c-210
-65 -420 -166 -595 -284 -84 -58 -102 -75 -114 -108 -12 -36 -12 -44 4 -78 21
-43 72 -71 111 -62 13 4 70 37 127 75 96 64 140 90 244 140 l42 21 16 -29 c30
-59 169 -233 230 -289 75 -68 163 -122 267 -162 78 -30 221 -60 289 -60 l38 0
-127 -124 c-70 -68 -152 -156 -182 -195 l-55 -71 -717 0 c-395 0 -718 4 -718
8 0 14 101 184 149 252 25 36 72 96 104 134 63 76 74 102 61 148 -20 70 -117
97 -170 48 -45 -43 -139 -162 -209 -265 -75 -113 -203 -366 -211 -416 -6 -42
24 -95 62 -109 15 -6 309 -10 765 -10 406 0 739 -2 739 -4 0 -2 -29 -64 -65
-137 -75 -155 -83 -184 -61 -228 35 -66 -127 -61 2056 -61 2183 0 2021 -5
2056 61 22 44 14 75 -64 233 l-67 136 742 0 c458 0 752 4 767 10 38 14 68 67
62 108 -14 92 -195 409 -336 587 -138 175 -373 380 -580 508 -152 93 -389 194
-597 253 -10 2 -13 47 -13 177 l0 173 78 32 c153 64 312 173 453 312 202 199
349 456 410 719 l21 89 37 7 c118 22 266 135 329 252 100 189 77 423 -58 576
l-40 45 0 180 c0 416 -46 656 -180 940 -93 196 -222 371 -388 525 -38 35 -59
47 -82 47 -66 0 -109 -43 -110 -107 0 -40 5 -48 91 -137 51 -52 116 -127 145
-165 122 -163 222 -382 270 -590 39 -170 58 -558 27 -568 -7 -3 -13 19 -18 64
-19 216 -77 425 -161 583 -58 108 -81 130 -140 130 -38 0 -51 -6 -89 -41 -66
-61 -133 -69 -202 -24 -29 19 -62 88 -63 128 0 60 -59 105 -123 93 -48 -9 -76
-44 -86 -105 -14 -88 -70 -144 -144 -144 -84 0 -142 53 -156 143 -11 68 -52
110 -107 110 -48 0 -104 -53 -104 -99 0 -39 -21 -91 -45 -111 -16 -13 -19 -13
-31 5 -244 353 -507 571 -854 710 -63 25 -116 48 -118 50 -2 2 27 24 64 48
342 221 762 294 1172 206 101 -22 252 -74 334 -115 76 -38 145 -27 174 27 34
66 7 117 -84 163 -104 52 -246 102 -374 130 -527 118 -1076 -10 -1500 -350
l-66 -53 -84 9 c-106 12 -230 12 -336 0 l-84 -9 -66 53 c-218 175 -487 302
-750 356 -188 37 -358 47 -542 29z m-491 -1478 c116 -59 272 -45 375 34 l43
32 33 -27 34 -28 -32 -80 c-85 -220 -112 -382 -119 -724 l-6 -267 -39 -48
c-80 -95 -118 -203 -118 -328 0 -230 147 -427 366 -491 l61 -18 18 -76 c33
-143 103 -311 187 -449 21 -35 36 -67 32 -70 -3 -3 -81 -6 -172 -6 -182 1
-265 14 -415 64 -386 131 -695 445 -827 839 -56 168 -60 220 -60 758 0 537 4
584 58 744 35 100 52 140 62 140 4 0 23 -6 41 -14 100 -42 232 -25 329 42 l55
38 29 -23 c16 -13 45 -32 65 -42z m3918 -15 c76 -25 126 -29 189 -16 62 13
143 51 169 81 15 16 19 15 73 -22 99 -68 230 -85 331 -43 18 8 37 14 41 14 10
0 43 -78 73 -175 48 -155 52 -206 51 -720 0 -476 0 -481 -26 -600 -111 -525
-504 -918 -1030 -1031 -61 -13 -128 -18 -250 -19 -91 0 -169 3 -172 6 -4 3 11
35 32 70 84 139 154 306 187 450 l18 76 49 13 c81 20 164 68 225 128 191 188
206 489 35 695 l-39 48 -6 267 c-7 342 -34 504 -119 724 l-32 80 34 28 33 27
43 -32 c24 -18 65 -40 91 -49z m-2445 -432 c66 -22 177 -22 237 0 24 9 65 31
90 50 l47 33 34 -29 c114 -95 326 -95 440 0 l34 29 47 -33 c65 -47 122 -66
204 -67 85 -1 159 22 220 68 37 29 45 32 55 20 23 -28 147 -82 201 -89 48 -5
123 5 195 29 18 6 24 -2 48 -56 82 -190 101 -377 93 -934 -5 -333 -9 -404 -25
-485 -74 -359 -275 -659 -572 -854 -452 -298 -1042 -285 -1482 31 -168 121
-341 329 -427 514 -108 231 -121 313 -128 794 -8 557 11 744 93 934 24 54 30
62 48 56 139 -44 211 -41 316 11 37 19 73 41 80 49 10 12 18 9 55 -20 24 -18
68 -41 97 -51z m-2332 -559 c0 -189 -3 -275 -11 -275 -6 0 -29 13 -53 29 -152
105 -167 332 -29 462 37 35 70 58 86 59 4 0 7 -124 7 -275z m5959 260 c16 -8
48 -36 73 -64 95 -106 103 -255 21 -374 -26 -38 -101 -97 -122 -97 -8 0 -11
86 -11 275 0 151 2 275 5 275 4 0 19 -7 34 -15z m-4529 -690 c0 -151 -4 -275
-8 -275 -5 0 -29 14 -54 30 -144 95 -171 304 -56 435 39 44 92 85 111 85 4 0
7 -124 7 -275z m3099 260 c16 -8 49 -37 75 -66 121 -134 95 -338 -57 -441 -22
-16 -44 -28 -49 -28 -4 0 -8 124 -8 275 0 151 2 275 5 275 4 0 19 -7 34 -15z
m-3200 -1576 c94 -13 410 -7 475 10 22 5 44 8 48 5 4 -3 8 -95 8 -204 0 -238
1 -241 110 -265 105 -24 180 -47 180 -58 0 -26 -83 -140 -150 -208 -126 -127
-287 -192 -470 -192 -170 0 -331 61 -453 174 -73 66 -151 169 -162 210 -6 26
-4 27 72 47 43 12 95 24 116 28 92 16 105 55 106 317 1 146 2 158 19 153 9 -3
55 -10 101 -17z m2851 1 c124 -19 391 -11 508 15 l22 5 1 -157 c1 -191 9 -257
35 -284 12 -12 66 -31 139 -49 65 -17 121 -33 124 -36 15 -15 -61 -127 -139
-205 -136 -137 -290 -202 -480 -202 -116 0 -196 19 -310 74 -69 34 -101 58
-170 128 -78 78 -154 191 -139 205 3 3 59 19 125 36 171 43 164 31 164 279 0
109 3 201 6 204 4 4 16 5 28 2 12 -3 50 -9 86 -15z m-1982 -236 c40 -23 107
-57 148 -76 51 -23 74 -38 74 -50 0 -22 3 -23 -64 7 -32 14 -108 41 -169 59
l-112 34 -3 53 -3 52 28 -19 c15 -10 61 -37 101 -60z m1645 -24 c-4 -4 -37
-15 -73 -25 -54 -14 -182 -60 -252 -90 -14 -5 -18 -2 -18 11 0 14 26 31 96 63
53 25 131 66 173 92 l76 47 3 -45 c2 -25 0 -49 -5 -53z m-1078 -171 c122 -18
349 -10 488 16 l37 7 0 -202 c0 -119 4 -209 10 -221 15 -27 50 -42 173 -74 59
-15 107 -32 107 -38 0 -5 -14 -35 -32 -66 -39 -69 -165 -195 -240 -239 -314
-186 -720 -90 -920 217 -26 40 -48 79 -48 86 0 7 44 24 108 40 122 32 157 47
172 74 6 12 10 102 10 221 l0 202 38 -7 c20 -4 64 -11 97 -16z m-376 -170 c28
-10 31 -15 31 -50 0 -21 -1 -39 -3 -39 -1 0 -32 -9 -69 -19 l-66 -19 37 69
c20 38 36 69 37 69 1 0 15 -5 33 -11z m1214 -56 c21 -36 36 -67 34 -69 -2 -2
-33 6 -70 17 l-67 20 0 38 c0 29 5 40 23 49 37 18 42 14 80 -55z m1725 17
c262 -141 494 -339 670 -573 66 -88 182 -276 182 -295 0 -9 -154 -12 -718 -12
l-718 0 -70 86 c-38 48 -119 135 -180 194 l-112 107 97 11 c307 36 573 217
705 480 14 28 32 52 38 52 6 0 54 -23 106 -50z m-3144 -467 c144 -252 420
-425 718 -448 162 -13 365 35 513 122 130 76 259 211 336 350 19 35 38 63 43
63 18 0 198 -101 287 -161 183 -123 357 -288 488 -463 63 -84 181 -276 181
-295 0 -8 -461 -11 -1790 -11 -1415 0 -1790 3 -1790 12 0 19 116 207 182 295
132 176 304 340 487 462 91 61 268 161 286 161 6 0 32 -39 59 -87z"/>
<path d="M2755 4240 c-220 -35 -332 -141 -250 -238 40 -47 75 -50 159 -11 63
29 83 34 174 37 112 5 166 -5 249 -44 64 -31 101 -26 138 18 31 37 34 94 6
130 -64 80 -303 135 -476 108z"/>
<path d="M4027 4240 c-122 -20 -228 -65 -262 -112 -24 -35 -19 -92 11 -127 39
-47 78 -49 155 -9 63 33 66 33 199 33 132 0 136 -1 206 -34 84 -39 119 -37
159 11 30 36 32 81 6 125 -23 36 -117 85 -199 102 -77 16 -208 21 -275 11z"/>
<path d="M2801 3898 c-84 -43 -111 -120 -72 -200 53 -111 205 -118 266 -13 42
71 27 150 -37 198 -50 38 -103 43 -157 15z"/>
<path d="M4095 3913 c-35 -9 -87 -54 -101 -89 -42 -102 32 -214 142 -214 86 0
163 86 151 170 -12 90 -104 154 -192 133z"/>
<path d="M3097 3119 c-24 -14 -47 -62 -47 -100 0 -43 49 -90 123 -117 289
-108 777 -34 777 117 0 39 -24 87 -49 101 -29 15 -93 12 -118 -5 -95 -67 -471
-67 -566 0 -24 17 -93 19 -120 4z"/>
</g>
</svg>
